<svg version="1.0" preserveAspectRatio="xMidYMid meet" height="70" viewBox="0 0 300 52.499999" zoomAndPan="magnify" width="400" xmlns:xlink="http://www.w3.org/1999/xlink" xmlns="http://www.w3.org/2000/svg"><defs><g></g><clipPath id="1fb7c12c82"><path clip-rule="nonzero" d="M 4.824219 2.953125 L 295.277344 2.953125 L 295.277344 49.015625 L 4.824219 49.015625 Z M 4.824219 2.953125"></path></clipPath><clipPath id="e05e4bb751"><path clip-rule="nonzero" d="M 27.867188 2.953125 L 272.121094 2.953125 C 278.234375 2.953125 284.09375 5.382812 288.417969 9.703125 C 292.738281 14.023438 295.164062 19.886719 295.164062 25.996094 C 295.164062 32.109375 292.738281 37.96875 288.417969 42.289062 C 284.09375 46.609375 278.234375 49.039062 272.121094 49.039062 L 27.867188 49.039062 C 21.757812 49.039062 15.894531 46.609375 11.574219 42.289062 C 7.253906 37.96875 4.824219 32.109375 4.824219 25.996094 C 4.824219 19.886719 7.253906 14.023438 11.574219 9.703125 C 15.894531 5.382812 21.757812 2.953125 27.867188 2.953125 Z M 27.867188 2.953125"></path></clipPath><clipPath id="fe5f06386e"><path clip-rule="nonzero" d="M 8.304688 6.757812 L 160.601562 6.757812 L 160.601562 45.246094 L 8.304688 45.246094 Z M 8.304688 6.757812"></path></clipPath><clipPath id="440456c730"><path clip-rule="nonzero" d="M 27.550781 6.757812 L 141.332031 6.757812 C 146.433594 6.757812 151.328125 8.785156 154.9375 12.394531 C 158.546875 16.003906 160.574219 20.898438 160.574219 26.003906 C 160.574219 31.105469 158.546875 36 154.9375 39.609375 C 151.328125 43.21875 146.433594 45.246094 141.332031 45.246094 L 27.550781 45.246094 C 22.445312 45.246094 17.550781 43.21875 13.941406 39.609375 C 10.332031 36 8.304688 31.105469 8.304688 26.003906 C 8.304688 20.898438 10.332031 16.003906 13.941406 12.394531 C 17.550781 8.785156 22.445312 6.757812 27.550781 6.757812 Z M 27.550781 6.757812"></path></clipPath></defs><g clip-path="url(#1fb7c12c82)"><g clip-path="url(#e05e4bb751)"><path stroke-miterlimit="4" stroke-opacity="1" stroke-width="2" stroke="#000000" d="M 31.014249 -0.00170872 L 359.787805 -0.00170872 C 368.016476 -0.00170872 375.903382 3.268728 381.723919 9.084007 C 387.539197 14.899285 390.804376 22.791449 390.804376 31.014863 C 390.804376 39.243535 387.539197 47.13044 381.723919 52.945719 C 375.903382 58.760997 368.016476 62.031434 359.787805 62.031434 L 31.014249 62.031434 C 22.790836 62.031434 14.898672 58.760997 9.083393 52.945719 C 3.268115 47.13044 -0.00232222 39.243535 -0.00232222 31.014863 C -0.00232222 22.791449 3.268115 14.899285 9.083393 9.084007 C 14.898672 3.268728 22.790836 -0.00170872 31.014249 -0.00170872 Z M 31.014249 -0.00170872" stroke-linejoin="miter" fill="none" transform="matrix(0.742924, 0, 0, 0.742924, 4.825944, 2.954394)" stroke-linecap="butt"></path></g></g><g clip-path="url(#fe5f06386e)"><g clip-path="url(#440456c730)"><path fill-rule="nonzero" fill-opacity="1" d="M 8.304688 6.757812 L 160.601562 6.757812 L 160.601562 45.246094 L 8.304688 45.246094 Z M 8.304688 6.757812" fill="#000000"></path></g></g><g fill-opacity="1" fill="#ebf0fc"><g transform="translate(22.352692, 36.755049)"><g><path d="M 14.96875 -5.796875 C 14.96875 -4.554688 14.664062 -3.476562 14.0625 -2.5625 C 13.457031 -1.65625 12.582031 -0.953125 11.4375 -0.453125 C 10.289062 0.0351562 8.898438 0.28125 7.265625 0.28125 C 6.535156 0.28125 5.820312 0.234375 5.125 0.140625 C 4.4375 0.046875 3.773438 -0.09375 3.140625 -0.28125 C 2.515625 -0.46875 1.914062 -0.695312 1.34375 -0.96875 L 1.34375 -5.09375 C 2.332031 -4.65625 3.359375 -4.257812 4.421875 -3.90625 C 5.492188 -3.550781 6.554688 -3.375 7.609375 -3.375 C 8.328125 -3.375 8.90625 -3.46875 9.34375 -3.65625 C 9.789062 -3.84375 10.113281 -4.101562 10.3125 -4.4375 C 10.519531 -4.769531 10.625 -5.15625 10.625 -5.59375 C 10.625 -6.113281 10.445312 -6.554688 10.09375 -6.921875 C 9.738281 -7.296875 9.253906 -7.644531 8.640625 -7.96875 C 8.023438 -8.289062 7.332031 -8.640625 6.5625 -9.015625 C 6.070312 -9.242188 5.539062 -9.519531 4.96875 -9.84375 C 4.394531 -10.175781 3.851562 -10.582031 3.34375 -11.0625 C 2.832031 -11.539062 2.410156 -12.117188 2.078125 -12.796875 C 1.753906 -13.472656 1.59375 -14.289062 1.59375 -15.25 C 1.59375 -16.5 1.875 -17.566406 2.4375 -18.453125 C 3.007812 -19.335938 3.828125 -20.015625 4.890625 -20.484375 C 5.953125 -20.953125 7.207031 -21.1875 8.65625 -21.1875 C 9.738281 -21.1875 10.773438 -21.0625 11.765625 -20.8125 C 12.753906 -20.5625 13.785156 -20.195312 14.859375 -19.71875 L 13.4375 -16.28125 C 12.46875 -16.664062 11.601562 -16.960938 10.84375 -17.171875 C 10.082031 -17.390625 9.304688 -17.5 8.515625 -17.5 C 7.960938 -17.5 7.488281 -17.410156 7.09375 -17.234375 C 6.707031 -17.054688 6.414062 -16.804688 6.21875 -16.484375 C 6.019531 -16.171875 5.921875 -15.804688 5.921875 -15.390625 C 5.921875 -14.890625 6.0625 -14.46875 6.34375 -14.125 C 6.632812 -13.789062 7.070312 -13.46875 7.65625 -13.15625 C 8.25 -12.84375 8.984375 -12.476562 9.859375 -12.0625 C 10.921875 -11.550781 11.832031 -11.019531 12.59375 -10.46875 C 13.351562 -9.925781 13.9375 -9.285156 14.34375 -8.546875 C 14.757812 -7.804688 14.96875 -6.890625 14.96875 -5.796875 Z M 14.96875 -5.796875"></path></g></g></g><g fill-opacity="1" fill="#ebf0fc"><g transform="translate(38.466106, 36.755049)"><g><path d="M 19.75 0 L 15.328125 0 L 15.328125 -9.015625 L 7.0625 -9.015625 L 7.0625 0 L 2.625 0 L 2.625 -20.890625 L 7.0625 -20.890625 L 7.0625 -12.703125 L 15.328125 -12.703125 L 15.328125 -20.890625 L 19.75 -20.890625 Z M 19.75 0"></path></g></g></g><g fill-opacity="1" fill="#ebf0fc"><g transform="translate(60.850615, 36.755049)"><g><path d="M 21.59375 -10.46875 C 21.59375 -8.863281 21.390625 -7.398438 20.984375 -6.078125 C 20.585938 -4.753906 19.984375 -3.617188 19.171875 -2.671875 C 18.359375 -1.722656 17.328125 -0.992188 16.078125 -0.484375 C 14.828125 0.0234375 13.347656 0.28125 11.640625 0.28125 C 9.941406 0.28125 8.46875 0.0234375 7.21875 -0.484375 C 5.96875 -0.992188 4.9375 -1.722656 4.125 -2.671875 C 3.3125 -3.617188 2.703125 -4.753906 2.296875 -6.078125 C 1.898438 -7.410156 1.703125 -8.882812 1.703125 -10.5 C 1.703125 -12.664062 2.054688 -14.550781 2.765625 -16.15625 C 3.472656 -17.757812 4.566406 -19.003906 6.046875 -19.890625 C 7.523438 -20.773438 9.398438 -21.21875 11.671875 -21.21875 C 13.941406 -21.21875 15.804688 -20.773438 17.265625 -19.890625 C 18.734375 -19.003906 19.820312 -17.753906 20.53125 -16.140625 C 21.238281 -14.535156 21.59375 -12.644531 21.59375 -10.46875 Z M 6.34375 -10.46875 C 6.34375 -9.007812 6.523438 -7.753906 6.890625 -6.703125 C 7.253906 -5.648438 7.828125 -4.835938 8.609375 -4.265625 C 9.390625 -3.703125 10.398438 -3.421875 11.640625 -3.421875 C 12.898438 -3.421875 13.921875 -3.703125 14.703125 -4.265625 C 15.484375 -4.835938 16.050781 -5.648438 16.40625 -6.703125 C 16.769531 -7.753906 16.953125 -9.007812 16.953125 -10.46875 C 16.953125 -12.664062 16.539062 -14.390625 15.71875 -15.640625 C 14.894531 -16.898438 13.546875 -17.53125 11.671875 -17.53125 C 10.421875 -17.53125 9.398438 -17.242188 8.609375 -16.671875 C 7.828125 -16.109375 7.253906 -15.300781 6.890625 -14.25 C 6.523438 -13.195312 6.34375 -11.9375 6.34375 -10.46875 Z M 6.34375 -10.46875"></path></g></g></g><g fill-opacity="1" fill="#ebf0fc"><g transform="translate(84.135068, 36.755049)"><g><path d="M 9.296875 -20.890625 C 11.992188 -20.890625 13.960938 -20.3125 15.203125 -19.15625 C 16.441406 -18 17.0625 -16.40625 17.0625 -14.375 C 17.0625 -13.457031 16.921875 -12.582031 16.640625 -11.75 C 16.367188 -10.914062 15.921875 -10.175781 15.296875 -9.53125 C 14.671875 -8.882812 13.835938 -8.375 12.796875 -8 C 11.765625 -7.625 10.484375 -7.4375 8.953125 -7.4375 L 7.0625 -7.4375 L 7.0625 0 L 2.625 0 L 2.625 -20.890625 Z M 9.078125 -17.265625 L 7.0625 -17.265625 L 7.0625 -11.0625 L 8.515625 -11.0625 C 9.347656 -11.0625 10.066406 -11.171875 10.671875 -11.390625 C 11.285156 -11.609375 11.757812 -11.953125 12.09375 -12.421875 C 12.425781 -12.890625 12.59375 -13.488281 12.59375 -14.21875 C 12.59375 -15.25 12.304688 -16.015625 11.734375 -16.515625 C 11.160156 -17.015625 10.273438 -17.265625 9.078125 -17.265625 Z M 9.078125 -17.265625"></path></g></g></g><g fill-opacity="1" fill="#ebf0fc"><g transform="translate(102.505503, 36.755049)"><g><path d="M 2.625 0 L 2.625 -20.890625 L 7.0625 -20.890625 L 7.0625 0 Z M 2.625 0"></path></g></g></g><g fill-opacity="1" fill="#ebf0fc"><g transform="translate(112.190693, 36.755049)"><g><path d="M 6.984375 0 L 2.625 0 L 2.625 -20.890625 L 14.609375 -20.890625 L 14.609375 -17.265625 L 6.984375 -17.265625 L 6.984375 -11.875 L 14.078125 -11.875 L 14.078125 -8.265625 L 6.984375 -8.265625 Z M 6.984375 0"></path></g></g></g><g fill-opacity="1" fill="#ebf0fc"><g transform="translate(128.246967, 36.755049)"><g><path d="M 9.125 -12.296875 L 13.484375 -20.890625 L 18.265625 -20.890625 L 11.328125 -8.125 L 11.328125 0 L 6.9375 0 L 6.9375 -7.984375 L 0 -20.890625 L 4.796875 -20.890625 Z M 9.125 -12.296875"></path></g></g></g><g fill-opacity="1" fill="#000000"><g transform="translate(165.620637, 34.670501)"><g><path d="M 14.5625 -19.171875 L 14.34375 -18.25 L 8.984375 -18.25 L 4.734375 0 L 3.8125 0 L 8.03125 -18.25 L 2.625 -18.25 L 2.84375 -19.171875 Z M 14.5625 -19.171875"></path></g></g></g><g fill-opacity="1" fill="#000000"><g transform="translate(181.681693, 34.670501)"><g><path d="M 0.65625 -7.140625 C 1.113281 -9.085938 1.976562 -10.753906 3.25 -12.140625 C 4.582031 -13.578125 5.945312 -14.296875 7.34375 -14.296875 C 8.644531 -14.296875 9.628906 -13.695312 10.296875 -12.5 C 10.910156 -11.382812 11.125 -9.960938 10.9375 -8.234375 C 10.914062 -8.222656 10.914062 -8.195312 10.9375 -8.15625 L 10.828125 -7.765625 C 10.804688 -7.628906 10.734375 -7.515625 10.609375 -7.421875 C 10.492188 -7.316406 10.375 -7.265625 10.25 -7.265625 L 1.609375 -7.265625 L 1.578125 -7.140625 C 1.179688 -5.398438 1.265625 -3.914062 1.828125 -2.6875 C 2.347656 -1.507812 3.15625 -0.921875 4.25 -0.921875 C 5.925781 -0.921875 7.320312 -1.507812 8.4375 -2.6875 L 9.0625 -2.15625 C 7.75 -0.71875 6.070312 0 4.03125 0 C 2.644531 0 1.609375 -0.71875 0.921875 -2.15625 C 0.296875 -3.539062 0.207031 -5.203125 0.65625 -7.140625 Z M 1.90625 -8.1875 L 3.25 -8.1875 C 3.457031 -8.1875 3.847656 -8.191406 4.421875 -8.203125 C 5.003906 -8.210938 5.460938 -8.21875 5.796875 -8.21875 L 9.984375 -8.21875 C 10.171875 -9.6875 9.988281 -10.921875 9.4375 -11.921875 C 8.882812 -12.867188 8.109375 -13.34375 7.109375 -13.34375 C 6.023438 -13.34375 4.957031 -12.765625 3.90625 -11.609375 C 3.039062 -10.679688 2.375 -9.539062 1.90625 -8.1875 Z M 1.90625 -8.1875"></path></g></g></g><g fill-opacity="1" fill="#000000"><g transform="translate(196.031333, 34.670501)"><g><path d="M 7.09375 0 L 6.171875 -0.03125 L 8.015625 -8.078125 L 8.109375 -8.5 C 8.441406 -9.925781 8.4375 -11.101562 8.09375 -12.03125 C 7.71875 -12.945312 7.082031 -13.40625 6.1875 -13.40625 C 5.3125 -13.40625 4.460938 -12.882812 3.640625 -11.84375 C 2.816406 -10.832031 2.226562 -9.578125 1.875 -8.078125 L 1.84375 -8.078125 C 1.351562 -5.953125 1.070312 -4.722656 1 -4.390625 C 0.894531 -3.972656 0.757812 -3.414062 0.59375 -2.71875 C 0.425781 -2.03125 0.316406 -1.570312 0.265625 -1.34375 L -0.015625 -0.03125 L -0.96875 -0.03125 C -0.863281 -0.5 -0.722656 -1.09375 -0.546875 -1.8125 C -0.460938 -2.195312 -0.3125 -2.851562 -0.09375 -3.78125 C 0.125 -4.71875 0.289062 -5.421875 0.40625 -5.890625 C 0.519531 -6.421875 0.703125 -7.207031 0.953125 -8.25 C 1.210938 -9.300781 1.394531 -10.070312 1.5 -10.5625 L 2.328125 -14.140625 L 3.265625 -14.140625 L 2.796875 -12.078125 C 3.898438 -13.535156 5.101562 -14.265625 6.40625 -14.265625 C 7.5625 -14.265625 8.382812 -13.726562 8.875 -12.65625 C 9.082031 -12.207031 9.207031 -11.726562 9.25 -11.21875 C 9.84375 -12.175781 10.488281 -12.921875 11.1875 -13.453125 C 11.925781 -13.992188 12.675781 -14.265625 13.4375 -14.265625 C 14.570312 -14.265625 15.40625 -13.726562 15.9375 -12.65625 C 16.425781 -11.570312 16.476562 -10.179688 16.09375 -8.484375 L 14.109375 0 L 13.1875 0 L 15.140625 -8.484375 C 15.472656 -9.953125 15.46875 -11.125 15.125 -12 C 14.726562 -12.894531 14.082031 -13.34375 13.1875 -13.34375 C 12.351562 -13.34375 11.519531 -12.84375 10.6875 -11.84375 C 9.90625 -10.863281 9.328125 -9.617188 8.953125 -8.109375 Z M 7.09375 0"></path></g></g></g><g fill-opacity="1" fill="#000000"><g transform="translate(215.488875, 34.670501)"><g><path d="M 4.40625 -0.921875 C 5.488281 -0.921875 6.566406 -1.5 7.640625 -2.65625 C 8.742188 -3.882812 9.5 -5.378906 9.90625 -7.140625 C 10.320312 -8.929688 10.25 -10.410156 9.6875 -11.578125 C 9.144531 -12.753906 8.335938 -13.34375 7.265625 -13.34375 C 6.492188 -13.34375 5.710938 -13.050781 4.921875 -12.46875 C 4.140625 -11.894531 3.441406 -11.097656 2.828125 -10.078125 L 1.34375 -3.765625 C 1.5 -2.941406 1.867188 -2.257812 2.453125 -1.71875 C 2.992188 -1.1875 3.644531 -0.921875 4.40625 -0.921875 Z M 7.484375 -14.265625 C 8.867188 -14.265625 9.90625 -13.546875 10.59375 -12.109375 C 11.21875 -10.722656 11.304688 -9.0625 10.859375 -7.125 C 10.410156 -5.195312 9.546875 -3.539062 8.265625 -2.15625 C 6.953125 -0.71875 5.585938 0 4.171875 0 C 3.222656 0 2.394531 -0.332031 1.6875 -1 C 1.394531 -1.28125 1.148438 -1.601562 0.953125 -1.96875 L -0.546875 4.34375 L -1.5 4.34375 L 0.375 -3.578125 L 2.84375 -14.21875 L 3.796875 -14.21875 L 3.328125 -12.109375 C 4.640625 -13.546875 6.023438 -14.265625 7.484375 -14.265625 Z M 7.484375 -14.265625"></path></g></g></g><g fill-opacity="1" fill="#000000"><g transform="translate(229.522569, 34.670501)"><g><path d="M 2.875 -19.140625 L 3.828125 -19.140625 L -0.59375 0 L -1.546875 0 Z M 2.875 -19.140625"></path></g></g></g><g fill-opacity="1" fill="#000000"><g transform="translate(234.788582, 34.670501)"><g><path d="M 7.90625 -0.03125 L 7.015625 -0.046875 L 7.453125 -1.953125 C 6.554688 -1.210938 5.8125 -0.726562 5.21875 -0.5 C 4.5 -0.1875 3.628906 -0.03125 2.609375 -0.03125 C 2.148438 -0.03125 1.726562 -0.132812 1.34375 -0.34375 C 0.769531 -0.582031 0.359375 -0.957031 0.109375 -1.46875 C -0.222656 -2.082031 -0.273438 -2.875 -0.046875 -3.84375 C 0.304688 -5.351562 1.226562 -6.484375 2.71875 -7.234375 C 3.257812 -7.515625 3.820312 -7.71875 4.40625 -7.84375 C 4.800781 -7.945312 5.164062 -8 5.5 -8 L 8.828125 -8 L 8.953125 -8.578125 C 9.304688 -10.128906 9.238281 -11.34375 8.75 -12.21875 C 8.320312 -13.039062 7.617188 -13.453125 6.640625 -13.453125 C 5.972656 -13.453125 5.28125 -13.320312 4.5625 -13.0625 C 3.851562 -12.789062 3.210938 -12.429688 2.640625 -11.984375 L 2.15625 -12.640625 C 2.894531 -13.234375 3.734375 -13.6875 4.671875 -14 C 5.441406 -14.25 6.160156 -14.375 6.828125 -14.375 C 8.109375 -14.375 9.03125 -13.847656 9.59375 -12.796875 C 10.1875 -11.722656 10.28125 -10.316406 9.875 -8.578125 Z M 2.109375 -1.046875 L 2.140625 -1.078125 L 2.765625 -0.96875 C 3.785156 -0.96875 4.613281 -1.128906 5.25 -1.453125 C 5.695312 -1.679688 6.507812 -2.273438 7.6875 -3.234375 L 8.59375 -7.078125 L 5.25 -7.078125 C 4.945312 -7.078125 4.640625 -7.035156 4.328125 -6.953125 C 3.921875 -6.859375 3.460938 -6.691406 2.953125 -6.453125 C 2.390625 -6.148438 1.925781 -5.78125 1.5625 -5.34375 C 1.207031 -4.90625 0.96875 -4.40625 0.84375 -3.84375 C 0.632812 -2.976562 0.707031 -2.296875 1.0625 -1.796875 C 1.289062 -1.441406 1.640625 -1.191406 2.109375 -1.046875 Z M 2.109375 -1.046875"></path></g></g></g><g fill-opacity="1" fill="#000000"><g transform="translate(248.006067, 34.670501)"><g><path d="M 3 0 C 2.03125 0 1.488281 -0.585938 1.375 -1.765625 C 1.332031 -2.066406 1.320312 -2.425781 1.34375 -2.84375 C 1.375 -3.050781 1.410156 -3.226562 1.453125 -3.375 L 3.765625 -13.421875 L 1.6875 -13.421875 L 1.890625 -14.34375 L 3.96875 -14.34375 L 4.8125 -17.953125 L 5.734375 -17.953125 L 4.890625 -14.34375 L 7.796875 -14.34375 L 7.578125 -13.421875 L 4.6875 -13.421875 L 2.375 -3.375 C 2.351562 -3.28125 2.328125 -3.0625 2.296875 -2.71875 C 2.296875 -2.1875 2.335938 -1.789062 2.421875 -1.53125 C 2.546875 -1.125 2.8125 -0.921875 3.21875 -0.921875 C 3.476562 -0.921875 3.765625 -0.984375 4.078125 -1.109375 L 4.390625 -1.3125 L 5 -0.703125 C 4.976562 -0.703125 4.945312 -0.6875 4.90625 -0.65625 C 4.863281 -0.625 4.796875 -0.582031 4.703125 -0.53125 C 4.617188 -0.476562 4.535156 -0.425781 4.453125 -0.375 C 4.015625 -0.125 3.519531 0 2.96875 0 Z M 3 0"></path></g></g></g><g fill-opacity="1" fill="#000000"><g transform="translate(258.590613, 34.670501)"><g><path d="M 0.65625 -7.140625 C 1.113281 -9.085938 1.976562 -10.753906 3.25 -12.140625 C 4.582031 -13.578125 5.945312 -14.296875 7.34375 -14.296875 C 8.644531 -14.296875 9.628906 -13.695312 10.296875 -12.5 C 10.910156 -11.382812 11.125 -9.960938 10.9375 -8.234375 C 10.914062 -8.222656 10.914062 -8.195312 10.9375 -8.15625 L 10.828125 -7.765625 C 10.804688 -7.628906 10.734375 -7.515625 10.609375 -7.421875 C 10.492188 -7.316406 10.375 -7.265625 10.25 -7.265625 L 1.609375 -7.265625 L 1.578125 -7.140625 C 1.179688 -5.398438 1.265625 -3.914062 1.828125 -2.6875 C 2.347656 -1.507812 3.15625 -0.921875 4.25 -0.921875 C 5.925781 -0.921875 7.320312 -1.507812 8.4375 -2.6875 L 9.0625 -2.15625 C 7.75 -0.71875 6.070312 0 4.03125 0 C 2.644531 0 1.609375 -0.71875 0.921875 -2.15625 C 0.296875 -3.539062 0.207031 -5.203125 0.65625 -7.140625 Z M 1.90625 -8.1875 L 3.25 -8.1875 C 3.457031 -8.1875 3.847656 -8.191406 4.421875 -8.203125 C 5.003906 -8.210938 5.460938 -8.21875 5.796875 -8.21875 L 9.984375 -8.21875 C 10.171875 -9.6875 9.988281 -10.921875 9.4375 -11.921875 C 8.882812 -12.867188 8.109375 -13.34375 7.109375 -13.34375 C 6.023438 -13.34375 4.957031 -12.765625 3.90625 -11.609375 C 3.039062 -10.679688 2.375 -9.539062 1.90625 -8.1875 Z M 1.90625 -8.1875"></path></g></g></g><g fill-opacity="1" fill="#000000"><g transform="translate(272.940254, 34.670501)"><g><path d="M 1.53125 -10.953125 C 1.757812 -11.921875 2.332031 -12.71875 3.25 -13.34375 C 4.125 -13.957031 5.050781 -14.265625 6.03125 -14.265625 C 6.769531 -14.265625 7.523438 -13.992188 8.296875 -13.453125 C 8.472656 -13.328125 8.628906 -13.191406 8.765625 -13.046875 C 8.910156 -12.910156 9.015625 -12.796875 9.078125 -12.703125 C 9.148438 -12.617188 9.195312 -12.578125 9.21875 -12.578125 L 8.40625 -11.921875 C 8.207031 -12.171875 7.960938 -12.410156 7.671875 -12.640625 C 7.035156 -13.097656 6.410156 -13.328125 5.796875 -13.328125 C 5.046875 -13.328125 4.367188 -13.113281 3.765625 -12.6875 C 3.066406 -12.269531 2.628906 -11.691406 2.453125 -10.953125 C 2.242188 -9.972656 2.515625 -9.15625 3.265625 -8.5 C 3.898438 -7.957031 4.382812 -7.625 4.71875 -7.5 C 4.738281 -7.5 4.773438 -7.484375 4.828125 -7.453125 C 4.878906 -7.429688 4.941406 -7.398438 5.015625 -7.359375 C 5.097656 -7.328125 5.175781 -7.296875 5.25 -7.265625 C 5.59375 -7.109375 5.90625 -6.890625 6.1875 -6.609375 C 7.15625 -5.742188 7.484375 -4.640625 7.171875 -3.296875 C 6.953125 -2.328125 6.390625 -1.523438 5.484375 -0.890625 C 4.660156 -0.296875 3.738281 0 2.71875 0 C 1.90625 0 1.140625 -0.265625 0.421875 -0.796875 C 0.0546875 -1.078125 -0.238281 -1.363281 -0.46875 -1.65625 L 0.34375 -2.3125 C 0.519531 -2.070312 0.765625 -1.835938 1.078125 -1.609375 C 1.679688 -1.148438 2.304688 -0.921875 2.953125 -0.921875 C 3.691406 -0.921875 4.367188 -1.128906 4.984375 -1.546875 C 5.679688 -2.003906 6.109375 -2.585938 6.265625 -3.296875 C 6.515625 -4.328125 6.269531 -5.175781 5.53125 -5.84375 C 5.175781 -6.101562 4.894531 -6.285156 4.6875 -6.390625 L 4.25 -6.578125 C 3.820312 -6.703125 3.265625 -7.070312 2.578125 -7.6875 C 1.578125 -8.5625 1.226562 -9.648438 1.53125 -10.953125 Z M 1.53125 -10.953125"></path></g></g></g></svg>