<svg fill="none" viewBox="0 0 84 81" height="81" width="84" xmlns="http://www.w3.org/2000/svg" xmlns:xlink="http://www.w3.org/1999/xlink">
<circle stroke-width="2" stroke="#573FEA" fill="#FFDE70" r="35" cy="44.5" cx="48"></circle>
<circle stroke-width="2" stroke="#573FEA" fill="#B4A8FC" r="35" cy="42.5" cx="44"></circle>
<circle stroke-width="2" stroke="#573FEA" fill="#F480D4" r="35" cy="39.5" cx="40"></circle>
<circle stroke-width="2" stroke="#573FEA" fill="#45C9C1" r="35" cy="36.5" cx="36"></circle>
<path fill="#573FEA" d="M26.3267 49.5V46.0739L35.4162 37.1634C36.2855 36.2855 37.0099 35.5057 37.5895 34.8239C38.169 34.142 38.6037 33.4815 38.8935 32.8423C39.1832 32.2031 39.3281 31.5213 39.3281 30.7969C39.3281 29.9702 39.1406 29.2628 38.7656 28.6747C38.3906 28.0781 37.875 27.6179 37.2188 27.294C36.5625 26.9702 35.8168 26.8082 34.9815 26.8082C34.1207 26.8082 33.3665 26.9872 32.7188 27.3452C32.071 27.6946 31.5682 28.1932 31.2102 28.8409C30.8608 29.4886 30.6861 30.2599 30.6861 31.1548H26.1733C26.1733 29.4929 26.5526 28.0483 27.3111 26.821C28.0696 25.5937 29.1136 24.6435 30.4432 23.9702C31.7813 23.2969 33.3153 22.9602 35.0455 22.9602C36.8011 22.9602 38.3438 23.2884 39.6733 23.9446C41.0028 24.6009 42.0341 25.5 42.767 26.642C43.5085 27.7841 43.8793 29.0881 43.8793 30.554C43.8793 31.5341 43.6918 32.4972 43.3168 33.4432C42.9418 34.3892 42.2813 35.4375 41.3352 36.5881C40.3977 37.7386 39.081 39.1321 37.3849 40.7685L32.8722 45.358V45.5369H44.2756V49.5H26.3267Z"></path>
</svg>