<svg fill="none" viewBox="0 0 84 81" height="81" width="84" xmlns="http://www.w3.org/2000/svg" xmlns:xlink="http://www.w3.org/1999/xlink">
<circle stroke-width="2" stroke="#573FEA" fill="#45C9C1" r="35" cy="44.5" cx="48"></circle>
<circle stroke-width="2" stroke="#573FEA" fill="#FFDE70" r="35" cy="42.5" cx="44"></circle>
<circle stroke-width="2" stroke="#573FEA" fill="#B4A8FC" r="35" cy="39.5" cx="40"></circle>
<circle stroke-width="2" stroke="#573FEA" fill="#F480D4" r="35" cy="36.5" cx="36"></circle>
<path fill="#573FEA" d="M35.723 49.858C33.8821 49.858 32.2457 49.5426 30.8139 48.9119C29.3906 48.2812 28.2656 47.4034 27.4389 46.2784C26.6122 45.1534 26.1733 43.8537 26.1222 42.3793H30.929C30.9716 43.0866 31.206 43.7045 31.6321 44.233C32.0582 44.7528 32.625 45.1577 33.3324 45.4474C34.0398 45.7372 34.8324 45.8821 35.7102 45.8821C36.6477 45.8821 37.4787 45.7202 38.2031 45.3963C38.9276 45.0639 39.4943 44.6037 39.9034 44.0156C40.3125 43.4276 40.5128 42.75 40.5043 41.983C40.5128 41.1903 40.3082 40.4915 39.8906 39.8864C39.473 39.2812 38.8679 38.8082 38.0753 38.4673C37.2912 38.1264 36.3452 37.956 35.2372 37.956H32.9233V34.2997H35.2372C36.1491 34.2997 36.946 34.142 37.6278 33.8267C38.3182 33.5114 38.8594 33.0682 39.2514 32.4972C39.6435 31.9176 39.8352 31.2486 39.8267 30.4901C39.8352 29.7486 39.669 29.1051 39.3281 28.5597C38.9957 28.0057 38.5227 27.5753 37.9091 27.2685C37.304 26.9616 36.5923 26.8082 35.7741 26.8082C34.973 26.8082 34.2315 26.9531 33.5497 27.2429C32.8679 27.5327 32.3182 27.946 31.9006 28.483C31.483 29.0114 31.2614 29.642 31.2358 30.375H26.6719C26.706 28.9091 27.1278 27.6222 27.9375 26.5142C28.7557 25.3977 29.8466 24.5284 31.2102 23.9062C32.5739 23.2756 34.1037 22.9602 35.7997 22.9602C37.5469 22.9602 39.0639 23.2884 40.3509 23.9446C41.6463 24.5923 42.6477 25.4659 43.3551 26.5653C44.0625 27.6648 44.4162 28.8793 44.4162 30.2088C44.4247 31.6832 43.9901 32.919 43.1122 33.9162C42.2429 34.9134 41.1009 35.5653 39.6861 35.8722V36.0767C41.527 36.3324 42.9375 37.0142 43.9176 38.1222C44.9063 39.2216 45.3963 40.5895 45.3878 42.2259C45.3878 43.6918 44.9702 45.0043 44.1349 46.1634C43.3082 47.3139 42.1662 48.2173 40.7088 48.8736C39.2599 49.5298 37.598 49.858 35.723 49.858Z"></path>
</svg>