<svg fill="none" viewBox="0 0 73 73" height="73" width="73" xmlns="http://www.w3.org/2000/svg" xmlns:xlink="http://www.w3.org/1999/xlink">
<path fill="#FFDE70" d="M4.584 50.9177C12.6385 68.4527 33.3828 76.1381 50.9177 68.0836C68.4527 60.0291 76.1381 39.2848 68.0836 21.7498C60.0291 4.21492 39.2848 -3.47048 21.7498 4.584C4.21492 12.6385 -3.47048 33.3828 4.584 50.9177Z"></path>
<path fill="#0E0D1A" d="M52.3127 29.8098C51.7157 31.5328 50.7447 32.8948 49.7077 33.7188C48.6597 34.5508 47.6698 34.7508 46.9118 34.4888C46.1528 34.2258 45.4988 33.4568 45.1888 32.1548C44.8828 30.8668 44.9607 29.1958 45.5567 27.4718C46.1537 25.7488 47.1248 24.3868 48.1618 23.5638C49.2098 22.7308 50.1997 22.5308 50.9577 22.7928C51.7167 23.0558 52.3707 23.8248 52.6797 25.1268C52.9867 26.4148 52.9087 28.0858 52.3127 29.8098Z"></path>
<path fill="#0E0D1A" d="M35.669 24.3578C35.072 26.0818 34.1009 27.4428 33.0639 28.2668C32.0159 29.0988 31.026 29.2988 30.268 29.0368C29.509 28.7748 28.855 28.0048 28.545 26.7028C28.239 25.4148 28.3169 23.7438 28.9129 22.0208C29.5099 20.2968 30.481 18.9348 31.518 18.1118C32.566 17.2798 33.5559 17.0788 34.3139 17.3418C35.0729 17.6038 35.7269 18.3728 36.0359 19.6748C36.3429 20.9628 36.265 22.6338 35.669 24.3578Z"></path>
<path stroke-linecap="round" stroke-width="2" stroke="black" d="M14.2154 24.5628C13.1823 32.2278 16.1468 49.2158 29.7009 54.2378C43.2589 59.2608 56.0489 47.2878 59.5579 41.3618M50.9177 68.0836C33.3828 76.1381 12.6385 68.4527 4.584 50.9177C-3.47048 33.3828 4.21492 12.6385 21.7498 4.584C39.2848 -3.47048 60.0291 4.21492 68.0836 21.7498C76.1381 39.2848 68.4527 60.0291 50.9177 68.0836ZM52.3127 29.8098C51.7157 31.5328 50.7447 32.8948 49.7077 33.7188C48.6597 34.5508 47.6698 34.7508 46.9118 34.4888C46.1528 34.2258 45.4988 33.4568 45.1888 32.1548C44.8828 30.8668 44.9607 29.1958 45.5567 27.4718C46.1537 25.7488 47.1248 24.3868 48.1618 23.5638C49.2098 22.7308 50.1997 22.5308 50.9577 22.7928C51.7167 23.0558 52.3707 23.8248 52.6797 25.1268C52.9867 26.4148 52.9087 28.0858 52.3127 29.8098ZM35.669 24.3578C35.072 26.0818 34.1009 27.4428 33.0639 28.2668C32.0159 29.0988 31.026 29.2988 30.268 29.0368C29.509 28.7748 28.855 28.0048 28.545 26.7028C28.239 25.4148 28.3169 23.7438 28.9129 22.0208C29.5099 20.2968 30.481 18.9348 31.518 18.1118C32.566 17.2798 33.5559 17.0788 34.3139 17.3418C35.0729 17.6038 35.7269 18.3728 36.0359 19.6748C36.3429 20.9628 36.265 22.6338 35.669 24.3578Z"></path>
</svg>